<svg xmlns="http://www.w3.org/2000/svg" xmlns:xlink="http://www.w3.org/1999/xlink" width="200" zoomAndPan="magnify" viewBox="0 0 150 149.999998" height="200" preserveAspectRatio="xMidYMid meet" version="1.0"><defs><clipPath id="0c355c69d9"><path d="M 17.5625 11 L 132.3125 11 L 132.3125 139.023438 L 17.5625 139.023438 Z M 17.5625 11 " clip-rule="nonzero"/></clipPath><clipPath id="bae321920d"><path d="M 69.726562 66.6875 L 80.273438 66.6875 L 80.273438 83.664062 L 69.726562 83.664062 Z M 69.726562 66.6875 " clip-rule="nonzero"/></clipPath><clipPath id="0466a8c146"><path d="M 75 66.6875 L 80.273438 83.625 L 69.726562 83.625 Z M 75 66.6875 " clip-rule="nonzero"/></clipPath><clipPath id="2d3f759034"><path d="M 70.609375 66.375 L 79.390625 66.375 L 79.390625 75.15625 L 70.609375 75.15625 Z M 70.609375 66.375 " clip-rule="nonzero"/></clipPath><clipPath id="21977ad7f8"><path d="M 75 66.375 C 72.574219 66.375 70.609375 68.339844 70.609375 70.765625 C 70.609375 73.191406 72.574219 75.15625 75 75.15625 C 77.425781 75.15625 79.390625 73.191406 79.390625 70.765625 C 79.390625 68.339844 77.425781 66.375 75 66.375 Z M 75 66.375 " clip-rule="nonzero"/></clipPath></defs><g clip-path="url(#0c355c69d9)"><path fill="#319407" d="M 126.980469 111.167969 L 80.292969 137.621094 C 78.660156 138.546875 76.828125 139.011719 74.996094 139.011719 C 73.164062 139.011719 71.332031 138.546875 69.699219 137.621094 L 23.011719 111.167969 C 19.648438 109.261719 17.5625 105.679688 17.5625 101.816406 L 17.5625 49.453125 C 17.5625 45.648438 19.605469 42.089844 22.890625 40.171875 L 69.582031 12.9375 C 72.921875 10.988281 77.070312 10.988281 80.410156 12.9375 L 127.097656 40.171875 C 130.386719 42.089844 132.429688 45.644531 132.429688 49.453125 L 132.429688 90.972656 L 124.78125 85.011719 L 124.78125 49.453125 C 124.78125 48.355469 124.195312 47.332031 123.246094 46.777344 L 76.554688 19.546875 C 75.59375 18.984375 74.398438 18.984375 73.4375 19.546875 L 70.175781 21.449219 L 76.777344 32.945312 C 94.019531 33.660156 108.632812 44.738281 114.535156 60.097656 L 114.535156 60.101562 C 115.476562 62.550781 116.195312 65.105469 116.671875 67.75 L 92.726562 67.75 C 89.90625 60.714844 83.023438 55.730469 74.996094 55.730469 C 64.46875 55.730469 55.902344 64.296875 55.902344 74.824219 C 55.902344 85.351562 64.46875 93.917969 74.996094 93.917969 C 78.761719 93.917969 82.273438 92.816406 85.230469 90.925781 L 96.328125 90.925781 C 91.441406 97.382812 83.699219 101.566406 74.996094 101.566406 C 71.421875 101.566406 68.007812 100.859375 64.886719 99.582031 L 60.5625 106.785156 C 64.957031 108.808594 69.847656 109.9375 74.996094 109.9375 C 88.46875 109.9375 100.160156 102.214844 105.90625 90.972656 L 132.433594 90.972656 L 132.433594 101.816406 C 132.429688 105.679688 130.34375 109.261719 126.980469 111.167969 Z M 97.300781 60.097656 L 106.199219 60.097656 C 100.566406 48.539062 88.695312 40.554688 74.996094 40.554688 C 74.128906 40.554688 73.273438 40.597656 72.421875 40.660156 L 71.363281 38.824219 L 71.34375 38.835938 L 63.566406 25.300781 L 63.554688 25.308594 L 59.730469 18.683594 L 58.171875 28.449219 L 26.746094 46.777344 C 25.796875 47.332031 25.210938 48.355469 25.210938 49.453125 L 25.210938 101.816406 C 25.210938 102.929688 25.8125 103.960938 26.78125 104.511719 L 29.960938 106.3125 L 37.175781 94.25 C 34.285156 88.53125 32.65625 82.078125 32.65625 75.246094 C 32.65625 58.40625 42.539062 43.835938 56.804688 37.019531 L 60.628906 43.679688 L 64.410156 50.265625 C 67.65625 48.859375 71.238281 48.078125 74.996094 48.078125 C 84.304688 48.078125 92.511719 52.863281 97.300781 60.097656 Z M 110.273438 98.621094 C 102.683594 110.042969 89.707031 117.585938 74.996094 117.585938 C 65.675781 117.585938 57.054688 114.554688 50.054688 109.429688 L 51.78125 106.550781 L 51.777344 106.550781 L 58.296875 95.695312 C 52.179688 90.792969 48.253906 83.257812 48.253906 74.820312 C 48.253906 66.574219 52.003906 59.1875 57.894531 54.277344 L 54.0625 47.613281 C 45.710938 53.949219 40.304688 63.976562 40.304688 75.246094 C 40.304688 82.285156 42.414062 88.835938 46.03125 94.308594 L 45.214844 95.679688 L 45.226562 95.6875 L 34.609375 113.445312 L 34.585938 113.429688 L 32.65625 116.632812 L 41.621094 112.921875 L 73.46875 130.964844 C 74.410156 131.5 75.582031 131.5 76.523438 130.964844 L 123.210938 104.511719 C 124.179688 103.960938 124.78125 102.929688 124.78125 101.816406 L 124.78125 98.621094 Z M 110.273438 98.621094 " fill-opacity="1" fill-rule="nonzero"/></g><g clip-path="url(#bae321920d)"><g clip-path="url(#0466a8c146)"><path fill="#319407" d="M 69.726562 66.6875 L 80.273438 66.6875 L 80.273438 83.621094 L 69.726562 83.621094 Z M 69.726562 66.6875 " fill-opacity="1" fill-rule="nonzero"/></g></g><g clip-path="url(#2d3f759034)"><g clip-path="url(#21977ad7f8)"><path fill="#319407" d="M 70.609375 66.375 L 79.390625 66.375 L 79.390625 75.15625 L 70.609375 75.15625 Z M 70.609375 66.375 " fill-opacity="1" fill-rule="nonzero"/></g></g></svg>