<svg xmlns="http://www.w3.org/2000/svg" xmlns:xlink="http://www.w3.org/1999/xlink" width="140" zoomAndPan="magnify" viewBox="0 0 104.88 37.5" height="50" preserveAspectRatio="xMidYMid meet" version="1.0"><defs><g/><clipPath id="ac9b2e771d"><path d="M 13.921875 17.105469 L 16.457031 17.105469 L 16.457031 21.179688 L 13.921875 21.179688 Z M 13.921875 17.105469 " clip-rule="nonzero"/></clipPath><clipPath id="fe3b083a7c"><path d="M 15.1875 17.105469 L 16.457031 21.179688 L 13.921875 21.179688 Z M 15.1875 17.105469 " clip-rule="nonzero"/></clipPath><linearGradient x1="-0.000041926" gradientTransform="matrix(0.00991191, 0, 0, 0.00991191, 13.920179, 17.10402)" y1="205.56799" x2="255.999933" gradientUnits="userSpaceOnUse" y2="205.56799" id="207c69defe"><stop stop-opacity="1" stop-color="rgb(0%, 59.199524%, 69.799805%)" offset="0"/><stop stop-opacity="1" stop-color="rgb(0.192261%, 59.300232%, 69.659424%)" offset="0.0078125"/><stop stop-opacity="1" stop-color="rgb(0.576782%, 59.501648%, 69.380188%)" offset="0.015625"/><stop stop-opacity="1" stop-color="rgb(0.96283%, 59.70459%, 69.100952%)" offset="0.0234375"/><stop stop-opacity="1" stop-color="rgb(1.348877%, 59.907532%, 68.821716%)" offset="0.03125"/><stop stop-opacity="1" stop-color="rgb(1.734924%, 60.108948%, 68.544006%)" offset="0.0390625"/><stop stop-opacity="1" stop-color="rgb(2.120972%, 60.31189%, 68.264771%)" offset="0.046875"/><stop stop-opacity="1" stop-color="rgb(2.507019%, 60.513306%, 67.985535%)" offset="0.0546875"/><stop stop-opacity="1" stop-color="rgb(2.893066%, 60.716248%, 67.706299%)" offset="0.0625"/><stop stop-opacity="1" stop-color="rgb(3.279114%, 60.919189%, 67.428589%)" offset="0.0703125"/><stop stop-opacity="1" stop-color="rgb(3.665161%, 61.120605%, 67.149353%)" offset="0.078125"/><stop stop-opacity="1" stop-color="rgb(4.051208%, 61.323547%, 66.870117%)" offset="0.0859375"/><stop stop-opacity="1" stop-color="rgb(4.437256%, 61.524963%, 66.590881%)" offset="0.09375"/><stop stop-opacity="1" stop-color="rgb(4.823303%, 61.727905%, 66.311646%)" offset="0.101562"/><stop stop-opacity="1" stop-color="rgb(5.209351%, 61.930847%, 66.033936%)" offset="0.109375"/><stop stop-opacity="1" stop-color="rgb(5.593872%, 62.132263%, 65.7547%)" offset="0.117188"/><stop stop-opacity="1" stop-color="rgb(5.979919%, 62.335205%, 65.475464%)" offset="0.125"/><stop stop-opacity="1" stop-color="rgb(6.365967%, 62.538147%, 65.196228%)" offset="0.132812"/><stop stop-opacity="1" stop-color="rgb(6.752014%, 62.739563%, 64.918518%)" offset="0.140625"/><stop stop-opacity="1" stop-color="rgb(7.138062%, 62.942505%, 64.639282%)" offset="0.148438"/><stop stop-opacity="1" stop-color="rgb(7.524109%, 63.143921%, 64.360046%)" offset="0.15625"/><stop stop-opacity="1" stop-color="rgb(7.910156%, 63.346863%, 64.080811%)" offset="0.164062"/><stop stop-opacity="1" stop-color="rgb(8.296204%, 63.549805%, 63.801575%)" offset="0.171875"/><stop stop-opacity="1" stop-color="rgb(8.682251%, 63.751221%, 63.523865%)" offset="0.179688"/><stop stop-opacity="1" stop-color="rgb(9.068298%, 63.954163%, 63.244629%)" offset="0.1875"/><stop stop-opacity="1" stop-color="rgb(9.454346%, 64.155579%, 62.965393%)" offset="0.195312"/><stop stop-opacity="1" stop-color="rgb(9.840393%, 64.358521%, 62.686157%)" offset="0.203125"/><stop stop-opacity="1" stop-color="rgb(10.22644%, 64.561462%, 62.406921%)" offset="0.210938"/><stop stop-opacity="1" stop-color="rgb(10.612488%, 64.762878%, 62.129211%)" offset="0.21875"/><stop stop-opacity="1" stop-color="rgb(10.997009%, 64.96582%, 61.849976%)" offset="0.226562"/><stop stop-opacity="1" stop-color="rgb(11.383057%, 65.167236%, 61.57074%)" offset="0.234375"/><stop stop-opacity="1" stop-color="rgb(11.769104%, 65.370178%, 61.291504%)" offset="0.242188"/><stop stop-opacity="1" stop-color="rgb(12.155151%, 65.57312%, 61.013794%)" offset="0.25"/><stop stop-opacity="1" stop-color="rgb(12.541199%, 65.774536%, 60.734558%)" offset="0.257812"/><stop stop-opacity="1" stop-color="rgb(12.927246%, 65.977478%, 60.455322%)" offset="0.265625"/><stop stop-opacity="1" stop-color="rgb(13.313293%, 66.178894%, 60.176086%)" offset="0.273438"/><stop stop-opacity="1" stop-color="rgb(13.699341%, 66.381836%, 59.896851%)" offset="0.28125"/><stop stop-opacity="1" stop-color="rgb(14.085388%, 66.584778%, 59.619141%)" offset="0.289062"/><stop stop-opacity="1" stop-color="rgb(14.471436%, 66.786194%, 59.339905%)" offset="0.296875"/><stop stop-opacity="1" stop-color="rgb(14.857483%, 66.989136%, 59.060669%)" offset="0.304688"/><stop stop-opacity="1" stop-color="rgb(15.24353%, 67.192078%, 58.781433%)" offset="0.3125"/><stop stop-opacity="1" stop-color="rgb(15.629578%, 67.393494%, 58.502197%)" offset="0.320312"/><stop stop-opacity="1" stop-color="rgb(16.015625%, 67.596436%, 58.224487%)" offset="0.328125"/><stop stop-opacity="1" stop-color="rgb(16.400146%, 67.797852%, 57.945251%)" offset="0.335938"/><stop stop-opacity="1" stop-color="rgb(16.786194%, 68.000793%, 57.666016%)" offset="0.34375"/><stop stop-opacity="1" stop-color="rgb(17.172241%, 68.203735%, 57.38678%)" offset="0.351562"/><stop stop-opacity="1" stop-color="rgb(17.558289%, 68.405151%, 57.10907%)" offset="0.359375"/><stop stop-opacity="1" stop-color="rgb(17.944336%, 68.608093%, 56.829834%)" offset="0.367188"/><stop stop-opacity="1" stop-color="rgb(18.330383%, 68.809509%, 56.550598%)" offset="0.375"/><stop stop-opacity="1" stop-color="rgb(18.716431%, 69.012451%, 56.271362%)" offset="0.382812"/><stop stop-opacity="1" stop-color="rgb(19.102478%, 69.215393%, 55.992126%)" offset="0.390625"/><stop stop-opacity="1" stop-color="rgb(19.488525%, 69.416809%, 55.714417%)" offset="0.398438"/><stop stop-opacity="1" stop-color="rgb(19.874573%, 69.619751%, 55.435181%)" offset="0.40625"/><stop stop-opacity="1" stop-color="rgb(20.26062%, 69.821167%, 55.155945%)" offset="0.414062"/><stop stop-opacity="1" stop-color="rgb(20.646667%, 70.024109%, 54.876709%)" offset="0.421875"/><stop stop-opacity="1" stop-color="rgb(21.032715%, 70.227051%, 54.598999%)" offset="0.429688"/><stop stop-opacity="1" stop-color="rgb(21.418762%, 70.428467%, 54.319763%)" offset="0.4375"/><stop stop-opacity="1" stop-color="rgb(21.803284%, 70.631409%, 54.040527%)" offset="0.445312"/><stop stop-opacity="1" stop-color="rgb(22.189331%, 70.832825%, 53.761292%)" offset="0.453125"/><stop stop-opacity="1" stop-color="rgb(22.575378%, 71.035767%, 53.482056%)" offset="0.460938"/><stop stop-opacity="1" stop-color="rgb(22.961426%, 71.238708%, 53.204346%)" offset="0.46875"/><stop stop-opacity="1" stop-color="rgb(23.347473%, 71.440125%, 52.92511%)" offset="0.476562"/><stop stop-opacity="1" stop-color="rgb(23.733521%, 71.643066%, 52.645874%)" offset="0.484375"/><stop stop-opacity="1" stop-color="rgb(24.119568%, 71.846008%, 52.366638%)" offset="0.492188"/><stop stop-opacity="1" stop-color="rgb(24.505615%, 72.047424%, 52.087402%)" offset="0.5"/><stop stop-opacity="1" stop-color="rgb(24.891663%, 72.250366%, 51.809692%)" offset="0.507812"/><stop stop-opacity="1" stop-color="rgb(25.27771%, 72.451782%, 51.530457%)" offset="0.515625"/><stop stop-opacity="1" stop-color="rgb(25.663757%, 72.654724%, 51.251221%)" offset="0.523437"/><stop stop-opacity="1" stop-color="rgb(26.049805%, 72.857666%, 50.971985%)" offset="0.53125"/><stop stop-opacity="1" stop-color="rgb(26.435852%, 73.059082%, 50.694275%)" offset="0.539063"/><stop stop-opacity="1" stop-color="rgb(26.821899%, 73.262024%, 50.415039%)" offset="0.546875"/><stop stop-opacity="1" stop-color="rgb(27.206421%, 73.46344%, 50.135803%)" offset="0.554688"/><stop stop-opacity="1" stop-color="rgb(27.592468%, 73.666382%, 49.856567%)" offset="0.5625"/><stop stop-opacity="1" stop-color="rgb(27.978516%, 73.869324%, 49.577332%)" offset="0.570312"/><stop stop-opacity="1" stop-color="rgb(28.364563%, 74.07074%, 49.299622%)" offset="0.578125"/><stop stop-opacity="1" stop-color="rgb(28.75061%, 74.273682%, 49.020386%)" offset="0.585937"/><stop stop-opacity="1" stop-color="rgb(29.136658%, 74.475098%, 48.74115%)" offset="0.59375"/><stop stop-opacity="1" stop-color="rgb(29.522705%, 74.67804%, 48.461914%)" offset="0.601563"/><stop stop-opacity="1" stop-color="rgb(29.908752%, 74.880981%, 48.182678%)" offset="0.609375"/><stop stop-opacity="1" stop-color="rgb(30.2948%, 75.082397%, 47.904968%)" offset="0.617188"/><stop stop-opacity="1" stop-color="rgb(30.680847%, 75.285339%, 47.625732%)" offset="0.625"/><stop stop-opacity="1" stop-color="rgb(31.066895%, 75.486755%, 47.346497%)" offset="0.632812"/><stop stop-opacity="1" stop-color="rgb(31.452942%, 75.689697%, 47.067261%)" offset="0.640625"/><stop stop-opacity="1" stop-color="rgb(31.838989%, 75.892639%, 46.789551%)" offset="0.648437"/><stop stop-opacity="1" stop-color="rgb(32.225037%, 76.094055%, 46.510315%)" offset="0.65625"/><stop stop-opacity="1" stop-color="rgb(32.609558%, 76.296997%, 46.231079%)" offset="0.664063"/><stop stop-opacity="1" stop-color="rgb(32.995605%, 76.498413%, 45.951843%)" offset="0.671875"/><stop stop-opacity="1" stop-color="rgb(33.381653%, 76.701355%, 45.672607%)" offset="0.679688"/><stop stop-opacity="1" stop-color="rgb(33.7677%, 76.904297%, 45.394897%)" offset="0.6875"/><stop stop-opacity="1" stop-color="rgb(34.153748%, 77.105713%, 45.115662%)" offset="0.695312"/><stop stop-opacity="1" stop-color="rgb(34.539795%, 77.308655%, 44.836426%)" offset="0.703125"/><stop stop-opacity="1" stop-color="rgb(34.925842%, 77.511597%, 44.55719%)" offset="0.710937"/><stop stop-opacity="1" stop-color="rgb(35.31189%, 77.713013%, 44.27948%)" offset="0.71875"/><stop stop-opacity="1" stop-color="rgb(35.697937%, 77.915955%, 44.000244%)" offset="0.726563"/><stop stop-opacity="1" stop-color="rgb(36.083984%, 78.117371%, 43.721008%)" offset="0.734375"/><stop stop-opacity="1" stop-color="rgb(36.470032%, 78.320312%, 43.441772%)" offset="0.742188"/><stop stop-opacity="1" stop-color="rgb(36.856079%, 78.523254%, 43.162537%)" offset="0.75"/><stop stop-opacity="1" stop-color="rgb(37.242126%, 78.72467%, 42.884827%)" offset="0.757812"/><stop stop-opacity="1" stop-color="rgb(37.628174%, 78.927612%, 42.605591%)" offset="0.765625"/><stop stop-opacity="1" stop-color="rgb(38.012695%, 79.129028%, 42.326355%)" offset="0.773437"/><stop stop-opacity="1" stop-color="rgb(38.398743%, 79.33197%, 42.047119%)" offset="0.78125"/><stop stop-opacity="1" stop-color="rgb(38.78479%, 79.534912%, 41.767883%)" offset="0.789063"/><stop stop-opacity="1" stop-color="rgb(39.170837%, 79.736328%, 41.490173%)" offset="0.796875"/><stop stop-opacity="1" stop-color="rgb(39.556885%, 79.93927%, 41.210938%)" offset="0.804688"/><stop stop-opacity="1" stop-color="rgb(39.942932%, 80.140686%, 40.931702%)" offset="0.8125"/><stop stop-opacity="1" stop-color="rgb(40.328979%, 80.343628%, 40.652466%)" offset="0.820312"/><stop stop-opacity="1" stop-color="rgb(40.715027%, 80.54657%, 40.374756%)" offset="0.828125"/><stop stop-opacity="1" stop-color="rgb(41.101074%, 80.747986%, 40.09552%)" offset="0.835937"/><stop stop-opacity="1" stop-color="rgb(41.487122%, 80.950928%, 39.816284%)" offset="0.84375"/><stop stop-opacity="1" stop-color="rgb(41.873169%, 81.152344%, 39.537048%)" offset="0.851563"/><stop stop-opacity="1" stop-color="rgb(42.259216%, 81.355286%, 39.257812%)" offset="0.859375"/><stop stop-opacity="1" stop-color="rgb(42.645264%, 81.558228%, 38.980103%)" offset="0.867188"/><stop stop-opacity="1" stop-color="rgb(43.029785%, 81.759644%, 38.700867%)" offset="0.875"/><stop stop-opacity="1" stop-color="rgb(43.415833%, 81.962585%, 38.421631%)" offset="0.882812"/><stop stop-opacity="1" stop-color="rgb(43.80188%, 82.165527%, 38.142395%)" offset="0.890625"/><stop stop-opacity="1" stop-color="rgb(44.187927%, 82.366943%, 37.863159%)" offset="0.898437"/><stop stop-opacity="1" stop-color="rgb(44.573975%, 82.569885%, 37.585449%)" offset="0.90625"/><stop stop-opacity="1" stop-color="rgb(44.960022%, 82.771301%, 37.306213%)" offset="0.914063"/><stop stop-opacity="1" stop-color="rgb(45.346069%, 82.974243%, 37.026978%)" offset="0.921875"/><stop stop-opacity="1" stop-color="rgb(45.732117%, 83.177185%, 36.747742%)" offset="0.929688"/><stop stop-opacity="1" stop-color="rgb(46.118164%, 83.378601%, 36.470032%)" offset="0.9375"/><stop stop-opacity="1" stop-color="rgb(46.504211%, 83.581543%, 36.190796%)" offset="0.945312"/><stop stop-opacity="1" stop-color="rgb(46.890259%, 83.782959%, 35.91156%)" offset="0.953125"/><stop stop-opacity="1" stop-color="rgb(47.276306%, 83.985901%, 35.632324%)" offset="0.960937"/><stop stop-opacity="1" stop-color="rgb(47.662354%, 84.188843%, 35.353088%)" offset="0.96875"/><stop stop-opacity="1" stop-color="rgb(48.048401%, 84.390259%, 35.075378%)" offset="0.976563"/><stop stop-opacity="1" stop-color="rgb(48.432922%, 84.593201%, 34.796143%)" offset="0.984375"/><stop stop-opacity="1" stop-color="rgb(48.81897%, 84.794617%, 34.516907%)" offset="0.992188"/><stop stop-opacity="1" stop-color="rgb(49.205017%, 84.997559%, 34.237671%)" offset="1"/></linearGradient><clipPath id="41b8a040e1"><path d="M 1.371094 3.699219 L 28.753906 3.699219 L 28.753906 34.496094 L 1.371094 34.496094 Z M 1.371094 3.699219 " clip-rule="nonzero"/></clipPath><clipPath id="a6e90c5faa"><path d="M 14.132812 17.027344 L 16.246094 17.027344 L 16.246094 19.140625 L 14.132812 19.140625 Z M 14.132812 17.027344 " clip-rule="nonzero"/></clipPath><clipPath id="1b8e7cf325"><path d="M 15.1875 17.027344 C 14.605469 17.027344 14.132812 17.5 14.132812 18.085938 C 14.132812 18.667969 14.605469 19.140625 15.1875 19.140625 C 15.773438 19.140625 16.246094 18.667969 16.246094 18.085938 C 16.246094 17.5 15.773438 17.027344 15.1875 17.027344 Z M 15.1875 17.027344 " clip-rule="nonzero"/></clipPath></defs><g fill="#ffffff" fill-opacity="1"><g transform="translate(35.073874, 26.200193)"><g><path d="M 9.609375 -8.640625 L 9.609375 -13.4375 L 0.953125 -13.4375 L 0.953125 -15.359375 L 9.609375 -15.359375 C 10.878906 -15.359375 11.515625 -14.71875 11.515625 -13.4375 L 11.515625 -8.640625 C 11.515625 -7.359375 10.878906 -6.71875 9.609375 -6.71875 L 2.875 -6.71875 L 2.875 0 L 0.953125 0 L 0.953125 -8.640625 Z M 9.609375 -8.640625 "/></g></g></g><g fill="#ffffff" fill-opacity="1"><g transform="translate(47.560031, 26.200193)"><g><path d="M 2.875 0 C 1.59375 0 0.953125 -0.640625 0.953125 -1.921875 L 0.953125 -15.359375 L 2.875 -15.359375 L 2.875 -1.921875 L 16.328125 -1.921875 L 16.328125 -15.359375 L 18.25 -15.359375 L 18.25 -1.921875 C 18.25 -0.640625 17.609375 0 16.328125 0 Z M 8.640625 -3.84375 L 8.640625 -15.359375 L 10.5625 -15.359375 L 10.5625 -3.84375 Z M 8.640625 -3.84375 "/></g></g></g><g fill="#ffffff" fill-opacity="1"><g transform="translate(66.769499, 26.200193)"><g><path d="M 0.953125 -13.4375 C 0.953125 -14.71875 1.59375 -15.359375 2.875 -15.359375 L 9.609375 -15.359375 C 10.878906 -15.359375 11.515625 -14.71875 11.515625 -13.4375 L 11.515625 0 L 9.609375 0 L 9.609375 -13.4375 L 2.875 -13.4375 L 2.875 0 L 0.953125 0 Z M 0.953125 -13.4375 "/></g></g></g><g fill="#ffffff" fill-opacity="1"><g transform="translate(79.255656, 26.200193)"><g><path d="M 11.515625 -15.359375 L 11.515625 -13.4375 L 0.953125 -13.4375 L 0.953125 -15.359375 Z M 0.953125 0 L 0.953125 -1.921875 L 11.515625 -1.921875 L 11.515625 0 Z M 0.953125 -3.84375 L 0.953125 -5.765625 L 9.609375 -5.765625 L 9.609375 -3.84375 Z M 0.953125 -3.84375 "/></g></g></g><g fill="#ffffff" fill-opacity="1"><g transform="translate(91.741814, 26.200193)"><g><path d="M 2.875 0 C 1.59375 0 0.953125 -0.640625 0.953125 -1.921875 L 0.953125 -15.359375 L 2.875 -15.359375 L 2.875 -1.921875 L 9.609375 -1.921875 L 9.609375 -15.359375 L 11.515625 -15.359375 L 11.515625 -1.921875 C 11.515625 -0.640625 10.878906 0 9.609375 0 Z M 2.875 0 "/></g></g></g><g clip-path="url(#ac9b2e771d)"><g clip-path="url(#fe3b083a7c)"><path fill="url(#207c69defe)" d="M 13.921875 17.105469 L 13.921875 21.179688 L 16.457031 21.179688 L 16.457031 17.105469 Z M 13.921875 17.105469 " fill-rule="nonzero"/></g></g><g clip-path="url(#41b8a040e1)"><path fill="#319407" d="M 27.6875 27.796875 L 16.460938 34.160156 C 16.066406 34.382812 15.625 34.496094 15.183594 34.496094 C 14.746094 34.496094 14.304688 34.382812 13.910156 34.160156 L 2.679688 27.796875 C 1.871094 27.339844 1.371094 26.480469 1.371094 25.550781 L 1.371094 12.957031 C 1.371094 12.039062 1.863281 11.183594 2.652344 10.722656 L 13.882812 4.171875 C 14.6875 3.703125 15.683594 3.703125 16.488281 4.171875 L 27.714844 10.722656 C 28.507812 11.183594 29 12.039062 29 12.957031 L 29 22.941406 L 27.160156 21.507812 L 27.160156 12.957031 C 27.160156 12.691406 27.019531 12.445312 26.789062 12.3125 L 15.558594 5.761719 C 15.328125 5.625 15.039062 5.625 14.808594 5.761719 L 14.023438 6.21875 L 15.613281 8.984375 C 19.761719 9.15625 23.273438 11.820312 24.695312 15.515625 C 24.921875 16.105469 25.09375 16.71875 25.207031 17.355469 L 19.449219 17.355469 C 18.769531 15.664062 17.117188 14.464844 15.183594 14.464844 C 12.652344 14.464844 10.59375 16.523438 10.59375 19.058594 C 10.59375 21.589844 12.652344 23.648438 15.183594 23.648438 C 16.089844 23.648438 16.933594 23.386719 17.648438 22.929688 L 20.316406 22.929688 C 19.140625 24.484375 17.277344 25.488281 15.183594 25.488281 C 14.324219 25.488281 13.503906 25.320312 12.753906 25.011719 L 11.714844 26.746094 C 12.769531 27.230469 13.945312 27.503906 15.183594 27.503906 C 18.425781 27.503906 21.238281 25.644531 22.617188 22.941406 L 29 22.941406 L 29 25.550781 C 29 26.480469 28.496094 27.339844 27.6875 27.796875 Z M 20.550781 15.515625 L 22.691406 15.515625 C 21.335938 12.734375 18.480469 10.816406 15.183594 10.816406 C 14.976562 10.816406 14.769531 10.824219 14.566406 10.839844 L 14.3125 10.398438 L 14.304688 10.402344 L 12.4375 7.144531 L 12.433594 7.148438 L 11.511719 5.554688 L 11.140625 7.902344 L 3.582031 12.3125 C 3.351562 12.445312 3.210938 12.691406 3.210938 12.957031 L 3.210938 25.550781 C 3.210938 25.816406 3.355469 26.066406 3.589844 26.199219 L 4.351562 26.632812 L 6.089844 23.730469 C 5.394531 22.355469 5 20.800781 5 19.160156 C 5 15.109375 7.378906 11.605469 10.808594 9.964844 L 11.730469 11.566406 L 12.640625 13.148438 C 13.421875 12.8125 14.28125 12.625 15.183594 12.625 C 17.421875 12.625 19.398438 13.773438 20.550781 15.515625 Z M 23.667969 24.78125 C 21.84375 27.527344 18.722656 29.34375 15.183594 29.34375 C 12.945312 29.34375 10.871094 28.613281 9.1875 27.382812 L 9.601562 26.6875 L 11.167969 24.078125 C 9.695312 22.898438 8.753906 21.085938 8.753906 19.058594 C 8.753906 17.074219 9.65625 15.296875 11.070312 14.117188 L 10.148438 12.511719 C 8.140625 14.035156 6.839844 16.449219 6.839844 19.160156 C 6.839844 20.851562 7.347656 22.425781 8.21875 23.742188 L 8.023438 24.074219 L 5.472656 28.347656 L 5.464844 28.34375 L 5 29.113281 L 7.15625 28.21875 L 14.816406 32.5625 C 15.042969 32.6875 15.324219 32.6875 15.550781 32.5625 L 26.78125 26.199219 C 27.015625 26.066406 27.160156 25.816406 27.160156 25.550781 L 27.160156 24.78125 Z M 23.667969 24.78125 " fill-opacity="1" fill-rule="nonzero"/></g><g clip-path="url(#a6e90c5faa)"><g clip-path="url(#1b8e7cf325)"><path fill="#00bf63" d="M 14.132812 17.027344 L 16.246094 17.027344 L 16.246094 19.140625 L 14.132812 19.140625 Z M 14.132812 17.027344 " fill-opacity="1" fill-rule="nonzero"/></g></g></svg>